<?xml version="1.0" encoding="utf-8"?>
<!-- Generator: Adobe Illustrator 24.2.1, SVG Export Plug-In . SVG Version: 6.00 Build 0)  -->
<svg version="1.1" id="Layer_1" xmlns="http://www.w3.org/2000/svg" xmlns:xlink="http://www.w3.org/1999/xlink" x="0px" y="0px"
	 viewBox="0 0 512 512" style="enable-background:new 0 0 512 512;" xml:space="preserve">
<style type="text/css">
	.st0{fill:#91C083;}
	.st1{fill:#FFFFFF;}
</style>
<g>
	<g>
		<path class="st0" d="M90.56,387.76c-2.02,1.92-4.75,2.89-8.2,2.89H69.63v14.53c0,1.07-0.55,1.6-1.63,1.6c-1.07,0-1.6-0.53-1.6-1.6
			v-33.04c0-1.07,0.53-1.6,1.6-1.6h14.37c3.45,0,6.18,0.97,8.2,2.89c1.89,1.84,2.84,4.23,2.84,7.17
			C93.4,383.53,92.45,385.92,90.56,387.76z M88.27,375.46c-1.31-1.35-3.07-2.02-5.25-2.02h-13.4v14.29h13.4
			c2.19,0,3.94-0.68,5.25-2.02c1.26-1.33,1.89-3.04,1.89-5.12C90.17,378.5,89.54,376.8,88.27,375.46z"/>
		<path class="st0" d="M184.54,404.57c0.14,0.3,0.21,0.55,0.21,0.76c0,0.97-0.53,1.44-1.58,1.44c-0.68,0-1.16-0.34-1.44-1.02
			l-4.41-9.82h-18.49l-4.41,9.82c-0.28,0.68-0.77,1.02-1.47,1.02c-1.03,0-1.55-0.48-1.55-1.44c0-0.21,0.07-0.47,0.21-0.76
			l14.97-33.38c0.32-0.72,0.81-1.08,1.5-1.08c0.66,0,1.16,0.36,1.5,1.08L184.54,404.57z M176.08,393.06l-8.01-18.44l-8.01,18.44
			H176.08z"/>
		<path class="st0" d="M270.38,387.76c-2.02,1.92-4.75,2.89-8.2,2.89h-12.74v14.53c0,1.07-0.55,1.6-1.63,1.6
			c-1.07,0-1.6-0.53-1.6-1.6v-33.04c0-1.07,0.53-1.6,1.6-1.6h14.37c3.45,0,6.18,0.97,8.2,2.89c1.89,1.84,2.84,4.23,2.84,7.17
			C273.22,383.53,272.27,385.92,270.38,387.76z M268.1,375.46c-1.31-1.35-3.07-2.02-5.25-2.02h-13.4v14.29h13.4
			c2.19,0,3.94-0.68,5.25-2.02c1.26-1.33,1.89-3.04,1.89-5.12C269.99,378.5,269.36,376.8,268.1,375.46z"/>
		<path class="st0" d="M336.97,403.44h19.15c0.97,0,1.44,0.49,1.44,1.47c0,0.97-0.48,1.44-1.44,1.44h-20.78
			c-1.07,0-1.6-0.53-1.6-1.6v-32.62c0-1.07,0.53-1.6,1.6-1.6h20.72c0.97,0,1.44,0.48,1.44,1.44c0,0.98-0.48,1.47-1.44,1.47h-19.1
			v12.95h11.08c0.97,0,1.44,0.48,1.44,1.44c0,0.98-0.48,1.47-1.44,1.47h-11.08V403.44z"/>
		<path class="st0" d="M438.83,390.17l6.99,14.29c0.14,0.3,0.21,0.55,0.21,0.76c0,1.03-0.52,1.55-1.55,1.55
			c-0.68,0-1.18-0.3-1.5-0.89l-7.59-15.44H422.1v14.74c0,1.07-0.55,1.6-1.63,1.6c-1.07,0-1.6-0.53-1.6-1.6v-33.04
			c0-1.07,0.53-1.6,1.6-1.6h15.44c3.47,0,6.2,0.95,8.2,2.84c1.89,1.81,2.84,4.18,2.84,7.12
			C446.94,385.94,444.24,389.18,438.83,390.17z M436.57,373.44H422.1v14.08h14.47c4.76,0,7.14-2.34,7.14-7.04
			C443.71,375.79,441.33,373.44,436.57,373.44z"/>
	</g>
	<g>
		<path class="st0" d="M333.95,266.81c13.8,31.97-1.69,55.86-41.39,55.86c-35.11,0-59.88-20.51-85.28-40.14
			c31.56-14.9,53.41-47,53.41-84.22c0-49.81-39.12-90.48-88.31-92.97c-0.56-0.03-1.13-0.02-1.69-0.04l0,0
			c-1.03-0.03-2.06-0.08-3.1-0.08l0,0h0c-0.04,0-0.07,0-0.11,0c-50.52,0.06-91.58,40.36-92.92,90.57c-0.02,0.84-0.06,1.67-0.06,2.52
			c0,1.06,0.04,2.11,0.08,3.17c0.69,20.55,8.03,39.4,19.95,54.49c-18.07,10.33-29.47,28.19-29.47,44.16
			c0,8.08,5.05,10.77,10.1,10.77c5.39,0,9.43-4.04,9.43-9.42c0-5.39-4.04-9.76-9.43-9.76c-9.47,0-1.59-22.06,20.46-34.36
			c15.87,19.33,39.39,32.13,65.92,33.84c2,0.13,4.02,0.22,6.06,0.22c1.34,0,2.66-0.05,3.98-0.1c10.19-0.43,19.96-2.5,29.05-5.95
			c23.88,22.45,46.37,47.07,85.2,47.07c41.4,0,68.32-38.36,61.59-68.32C344.05,248.97,327.89,253.01,333.95,266.81z M167.59,108.33
			c11.63,0,22.75,2.17,32.98,6.09c29.47,15.01,47.7,46.92,47.7,83.9c0,35.41-16.72,66.17-44.01,81.9
			c-22.35-17.13-45.52-32.93-76.95-32.93c-9.16,0-17.68,1.86-25.31,5.02c-9.68-15.23-15.09-33.85-15.09-53.99
			c0-36.98,18.24-68.89,47.7-83.9C144.85,110.5,155.96,108.33,167.59,108.33z M103.02,253.87c7.03-2.79,15.14-4.55,24.3-4.55
			c31.06,0,51.62,15.9,70.9,33.79c-9.57,3.37-19.88,5.21-30.62,5.21c-11.63,0-22.74-2.17-32.97-6.08
			C121.75,275.67,111.02,265.89,103.02,253.87z"/>
		<path class="st0" d="M428.26,195.22v-74.47c0-6.86,5.56-12.41,12.41-12.41h6.21v-3.1h-18.62v0h-9.31v0h-18.62v3.1h6.21
			c6.86,0,12.41,5.56,12.41,12.41v62.06c0,6.86-5.56,12.41-12.41,12.41H301.03c-6.86,0-12.41-5.56-12.41-12.41v-62.06
			c0-6.85,5.55-12.41,12.4-12.41h6.22v-3.1h-18.62v0h-9.31v0h-18.62v3.1h6.22c6.85,0.01,12.4,5.56,12.4,12.41v74.48v6.21v74.48
			c0,6.86-5.56,12.41-12.41,12.41h12.41v0h-18.62v3.1h46.55v-3.1h-18.62v0h12.41c-6.86,0-12.41-5.56-12.41-12.41v-62.06
			c0-6.86,5.56-12.41,12.41-12.41h105.51c6.86,0,12.41,5.56,12.41,12.41v62.06c0,6.86-5.56,12.41-12.41,12.41h-6.21v3.1h46.55v-3.1
			h-6.21c-6.85,0-12.41-5.56-12.41-12.41v-74.48V195.22z"/>
	</g>
</g>
<path class="st0" d="M0,0v512h512V0H0z M492.8,492.8H19.2V19.2h473.6V492.8z"/>
</svg>
